<svg xmlns="http://www.w3.org/2000/svg" version="1.1" xmlns:xlink="http://www.w3.org/1999/xlink" xmlns:svgjs="http://svgjs.dev/svgjs" width="1440" height="560" preserveAspectRatio="none" viewBox="0 0 1440 560"><g mask="url(&quot;#SvgjsMask1003&quot;)" fill="none"><path d="M742 605.52C902.45 571.51 975.74 154.47 1217.68 153.71 1459.62 152.95 1556.41 418.51 1693.36 428.11" stroke="rgba(133, 111, 141, 0.58)" stroke-width="2"></path><path d="M348.97 640.97C555.25 610.98 665.89 126.14 1002.91 123.68 1339.94 121.22 1486.6 312.16 1656.86 314.08" stroke="rgba(133, 111, 141, 0.58)" stroke-width="2"></path><path d="M220.26 664.32C356.43 649.45 437.14 353.62 670.1 351.5 903.06 349.38 895.02 421.5 1119.95 421.5 1344.87 421.5 1455.98 351.71 1569.79 351.5" stroke="rgba(133, 111, 141, 0.58)" stroke-width="2"></path><path d="M333.2 613.33C467.95 602.83 558.91 335.63 796.27 334.34 1033.62 333.05 1027.8 404.34 1259.33 404.34 1490.87 404.34 1605.32 334.54 1722.4 334.34" stroke="rgba(133, 111, 141, 0.58)" stroke-width="2"></path><path d="M351.21 595.06C518.42 590.44 642.24 352.01 971.94 345.32 1301.63 338.63 1429.94 151.63 1592.66 149.32" stroke="rgba(133, 111, 141, 0.58)" stroke-width="2"></path></g><defs><mask id="SvgjsMask1003"><rect width="1440" height="560" fill="#ffffff"></rect></mask></defs></svg>